<svg width="36" height="38" viewBox="0 0 36 38" fill="none" xmlns="http://www.w3.org/2000/svg">
<path d="M35.3335 13.6338C34.4461 12.7464 33.0747 12.7464 32.268 13.6338L20.1671 25.7346L18.957 30.0103L23.2327 28.8002L35.3335 16.6994C36.2209 15.812 36.2209 14.4405 35.3335 13.6338Z" fill="#4DB748"/>
<path d="M17.2639 24.4437C17.3445 24.2017 17.5059 23.9597 17.6672 23.7176L30.0101 11.3748V1.61345C30.0101 0.72605 29.284 0 28.3966 0H1.61345C0.72605 0 0 0.72605 0 1.61345V36.3832C0 37.2706 0.72605 37.9966 1.61345 37.9966H28.3966C29.284 37.9966 30.0101 37.2706 30.0101 36.3832V26.5412L25.2504 31.3008C25.0891 31.4622 24.8471 31.6235 24.5244 31.7042L17.1832 33.8017C17.0218 33.8017 16.8605 33.8824 16.7798 33.8824C16.3765 33.8824 15.9731 33.721 15.6504 33.3983C15.2471 32.995 15.0857 32.4303 15.2471 31.8655L17.2639 24.4437ZM5.96975 5.00168H24.0403C24.9277 5.00168 25.6538 5.72773 25.6538 6.61513C25.6538 7.50252 24.9277 8.22857 24.0403 8.22857H5.96975C5.08235 8.22857 4.3563 7.50252 4.3563 6.61513C4.3563 5.72773 5.08235 5.00168 5.96975 5.00168ZM11.8588 25.5731H5.96975C5.08235 25.5731 4.3563 24.8471 4.3563 23.9597C4.3563 23.0723 5.08235 22.3462 5.96975 22.3462H11.8588C12.7462 22.3462 13.4723 23.0723 13.4723 23.9597C13.4723 24.8471 12.7462 25.5731 11.8588 25.5731ZM5.96975 16.8605C5.08235 16.8605 4.3563 16.1345 4.3563 15.2471C4.3563 14.3597 5.08235 13.6336 5.96975 13.6336H17.7479C18.6353 13.6336 19.3613 14.3597 19.3613 15.2471C19.3613 16.1345 18.6353 16.8605 17.7479 16.8605H5.96975Z" fill="#4DB748"/>
</svg>
