<svg width="36" height="32" viewBox="0 0 36 32" fill="none" xmlns="http://www.w3.org/2000/svg">
<path d="M6.42865 31.9172V28.4975L1.19187 22.9265C0.421719 22.1069 0 21.0741 0 20.0072V9.68922C0 8.745 0.863582 7.97937 1.92859 7.97937C2.99361 7.97937 3.85719 8.745 3.85719 9.68922V13.7404C2.98589 14.5273 2.56717 15.5312 2.57146 16.5313C2.57532 17.4641 2.95718 18.3475 3.50361 18.9463L6.36693 22.3417C6.79208 22.8455 7.59695 22.9497 8.1661 22.572C8.73482 22.195 8.85182 21.4803 8.42582 20.9769L5.53421 17.5492C4.98092 16.9386 4.9882 15.9518 5.70564 15.3177C6.38108 14.7188 7.71266 14.6907 8.40824 15.3078L14.3252 20.6592C15.037 21.3036 15.4288 22.1536 15.4288 23.0541V31.9172H6.42865Z" fill="#4DB748"/>
<path d="M20.5717 31.9172V23.0541C20.5717 22.1536 20.9634 21.3036 21.6748 20.6596L27.5917 15.3082C28.2839 14.6945 29.6138 14.715 30.2943 15.318C31.0118 15.9518 31.0191 16.939 30.4658 17.5496L27.5742 20.9773C27.1486 21.4811 27.2652 22.1958 27.8339 22.5723C28.4035 22.9497 29.2083 22.8455 29.633 22.3421L32.4964 18.9467C33.0432 18.3479 33.4247 17.4645 33.4285 16.5316C33.4328 15.5312 33.0141 14.5277 32.1428 13.7408V9.68922C32.1428 8.745 33.0064 7.97937 34.0714 7.97937C35.1364 7.97937 36 8.745 36 9.68922V20.0072C36 21.0738 35.5783 22.1069 34.8081 22.9261L29.5718 28.4975V31.9172H20.5717Z" fill="#4DB748"/>
<path d="M25.7146 0H10.2858C8.86551 0 7.71436 1.0206 7.71436 2.27982V11.3991C7.71436 12.6583 8.86551 13.6789 10.2858 13.6789H14.143L18.0002 17.0986L21.8574 13.6789H25.7146C27.1349 13.6789 28.286 12.6583 28.286 11.3991V2.27982C28.286 1.0206 27.1349 0 25.7146 0ZM12.2144 8.54932C11.1494 8.54932 10.2858 7.78368 10.2858 6.83945C10.2858 5.89523 11.1494 5.12959 12.2144 5.12959C13.2794 5.12959 14.143 5.89523 14.143 6.83945C14.143 7.78368 13.2794 8.54932 12.2144 8.54932ZM18.0002 8.54932C16.9352 8.54932 16.0716 7.78368 16.0716 6.83945C16.0716 5.89523 16.9352 5.12959 18.0002 5.12959C19.0652 5.12959 19.9288 5.89523 19.9288 6.83945C19.9288 7.78368 19.0652 8.54932 18.0002 8.54932ZM23.786 8.54932C22.721 8.54932 21.8574 7.78368 21.8574 6.83945C21.8574 5.89523 22.721 5.12959 23.786 5.12959C24.851 5.12959 25.7146 5.89523 25.7146 6.83945C25.7146 7.78368 24.851 8.54932 23.786 8.54932Z" fill="#4DB748"/>
</svg>
