<svg width="8" height="8" viewBox="0 0 8 8" fill="none" xmlns="http://www.w3.org/2000/svg">
<path d="M3.9872 3.26714C4.72119 2.53 5.40398 1.84429 6.08677 1.14143C6.27454 0.952857 6.30868 0.952857 6.47937 1.14143C6.59886 1.26143 6.71835 1.38143 6.83784 1.50143C7.04267 1.70714 7.04267 1.70714 6.83784 1.91286C6.18919 2.56429 5.55761 3.19857 4.90896 3.85C4.85775 3.90143 4.80654 3.93571 4.75533 3.97C4.82361 4.03857 4.85775 4.09 4.90896 4.12429C5.55761 4.77571 6.22333 5.44429 6.87198 6.09571C7.04267 6.26714 7.04267 6.28429 6.87198 6.45571C6.73542 6.59286 6.59886 6.74714 6.44523 6.88429C6.29161 7.03857 6.25747 7.03857 6.10384 6.88429C5.45519 6.23286 4.78947 5.56429 4.14083 4.91286C4.08962 4.86143 4.05548 4.81 3.97013 4.70714C3.91892 4.79286 3.90185 4.86143 3.85064 4.89571C3.18492 5.56429 2.53627 6.21571 1.87055 6.88429C1.71693 7.03857 1.69986 7.03857 1.54623 6.88429C1.3926 6.73 1.23898 6.59286 1.10242 6.43857C0.965861 6.30143 0.965861 6.25 1.10242 6.11286C1.78521 5.42714 2.46799 4.74143 3.15078 4.05571C3.16785 4.03857 3.18492 4.02143 3.21906 3.98714C3.18492 3.93571 3.13371 3.90143 3.09957 3.85C2.46799 3.19857 1.81935 2.54714 1.15363 1.89571C0.98293 1.72429 0.98293 1.70714 1.15363 1.53571C1.29018 1.39857 1.42674 1.26143 1.5633 1.12429C1.71693 0.97 1.75107 0.97 1.88762 1.12429C2.53627 1.77571 3.20199 2.44429 3.85064 3.09571C3.91892 3.13 3.93599 3.19857 3.9872 3.26714Z" fill="#999999" stroke="#999999" stroke-width="2"/>
</svg>
