<svg width="34" height="38" viewBox="0 0 34 38" fill="none" xmlns="http://www.w3.org/2000/svg">
<path d="M16.7113 0C14.1462 0 12.0812 0.941854 12.0812 2.11253V3.53469H8.48008V7.95306H24.9424V3.53469H21.3413V2.11253C21.3413 0.941854 19.2763 0 16.7113 0ZM1.79225 6.18571C0.9372 6.18571 0.248901 6.77686 0.248901 7.51122V35.7887C0.248901 36.5231 0.9372 37.1143 1.79225 37.1143H31.6303C32.4853 37.1143 33.1736 36.5231 33.1736 35.7887V7.51122C33.1736 6.77686 32.4853 6.18571 31.6303 6.18571H27.0002V8.83673C27.0002 9.29941 26.51 9.72036 25.9713 9.7204H7.45118C6.91247 9.72036 6.42234 9.29941 6.42228 8.83673V6.18571H1.79225ZM11.5668 14.1112C11.7758 14.1068 11.9815 14.1572 12.1564 14.2557C12.3312 14.3542 12.467 14.4962 12.5455 14.6626C12.6241 14.8291 12.6418 15.0121 12.5962 15.1874C12.5505 15.3627 12.4438 15.5219 12.2902 15.6438L9.20352 18.2948C9.0109 18.4583 8.75095 18.5501 8.48008 18.5501C8.20921 18.5501 7.94926 18.4583 7.75664 18.2948L5.69884 16.5274C5.59969 16.4465 5.52035 16.3493 5.46544 16.2417C5.41054 16.134 5.38118 16.0181 5.37909 15.9006C5.37699 15.7831 5.4022 15.6664 5.45324 15.5574C5.50428 15.4483 5.58013 15.3491 5.67634 15.2656C5.77256 15.182 5.88721 15.1158 6.01358 15.0708C6.13996 15.0257 6.27553 15.0028 6.41235 15.0033C6.54917 15.0038 6.68451 15.0277 6.81043 15.0737C6.93636 15.1196 7.05035 15.1867 7.14573 15.271L8.48008 16.417L10.8433 14.3873C11.0021 14.2454 11.2114 14.1531 11.4382 14.125C11.4806 14.118 11.5236 14.1134 11.5668 14.1112ZM17.6437 16.3479C17.6758 16.3467 17.708 16.3467 17.7402 16.3479H27.0002C27.1366 16.3463 27.2719 16.3679 27.3985 16.4116C27.525 16.4553 27.6401 16.5201 27.7372 16.6023C27.8343 16.6845 27.9114 16.7825 27.9641 16.8905C28.0167 16.9986 28.0438 17.1145 28.0438 17.2316C28.0438 17.3487 28.0167 17.4647 27.9641 17.5727C27.9114 17.6807 27.8343 17.7787 27.7372 17.8609C27.6401 17.9432 27.525 18.008 27.3985 18.0516C27.2719 18.0953 27.1366 18.1169 27.0002 18.1153H17.7402C17.605 18.1208 17.47 18.1033 17.3427 18.0639C17.2154 18.0246 17.0984 17.964 16.9984 17.8858C16.8983 17.8076 16.8172 17.7132 16.7596 17.6081C16.702 17.503 16.6692 17.3891 16.6628 17.2731C16.6565 17.157 16.6768 17.041 16.7227 16.9317C16.7686 16.8224 16.8391 16.7219 16.9301 16.636C17.0212 16.5501 17.1311 16.4804 17.2536 16.431C17.376 16.3816 17.5086 16.3534 17.6437 16.3479ZM11.5668 20.7387C11.7758 20.7343 11.9815 20.7847 12.1564 20.8832C12.3312 20.9818 12.467 21.1237 12.5455 21.2902C12.6241 21.4566 12.6418 21.6397 12.5962 21.815C12.5505 21.9902 12.4438 22.1494 12.2902 22.2713L9.20352 24.9223C9.0109 25.0859 8.75095 25.1776 8.48008 25.1776C8.20921 25.1776 7.94926 25.0859 7.75664 24.9223L5.69884 23.155C5.59969 23.074 5.52035 22.9769 5.46544 22.8692C5.41054 22.7616 5.38118 22.6456 5.37909 22.5281C5.37699 22.4106 5.4022 22.2939 5.45324 22.1849C5.50428 22.0759 5.58013 21.9767 5.67634 21.8931C5.77256 21.8096 5.88721 21.7434 6.01358 21.6983C6.13996 21.6533 6.27553 21.6303 6.41235 21.6308C6.54917 21.6313 6.68451 21.6553 6.81043 21.7012C6.93636 21.7472 7.05035 21.8143 7.14573 21.8985L8.48008 23.0445L10.8433 21.0148C11.0021 20.873 11.2114 20.7806 11.4382 20.7525C11.4806 20.7456 11.5236 20.741 11.5668 20.7387ZM17.6437 22.9755C17.6758 22.9742 17.708 22.9742 17.7402 22.9755H27.0002C27.1366 22.9738 27.2719 22.9955 27.3985 23.0391C27.525 23.0828 27.6401 23.1476 27.7372 23.2299C27.8343 23.3121 27.9114 23.41 27.9641 23.5181C28.0167 23.6261 28.0438 23.7421 28.0438 23.8592C28.0438 23.9763 28.0167 24.0922 27.9641 24.2003C27.9114 24.3083 27.8343 24.4063 27.7372 24.4885C27.6401 24.5707 27.525 24.6355 27.3985 24.6792C27.2719 24.7229 27.1366 24.7445 27.0002 24.7428H17.7402C17.605 24.7483 17.47 24.7309 17.3427 24.6915C17.2154 24.6521 17.0984 24.5916 16.9984 24.5134C16.8983 24.4352 16.8172 24.3408 16.7596 24.2357C16.702 24.1305 16.6692 24.0167 16.6628 23.9006C16.6565 23.7845 16.6768 23.6685 16.7227 23.5592C16.7686 23.4499 16.8391 23.3495 16.9301 23.2635C17.0212 23.1776 17.1311 23.108 17.2536 23.0586C17.376 23.0091 17.5086 22.9809 17.6437 22.9755ZM11.5668 27.3662C11.7758 27.3619 11.9815 27.4123 12.1564 27.5108C12.3312 27.6093 12.467 27.7513 12.5455 27.9177C12.6241 28.0842 12.6418 28.2672 12.5962 28.4425C12.5505 28.6178 12.4438 28.777 12.2902 28.8989L9.20352 31.5499C9.0109 31.7134 8.75095 31.8052 8.48008 31.8052C8.20921 31.8052 7.94926 31.7134 7.75664 31.5499L5.69884 29.7825C5.59969 29.7016 5.52035 29.6044 5.46544 29.4968C5.41054 29.3891 5.38118 29.2732 5.37909 29.1557C5.37699 29.0382 5.4022 28.9215 5.45324 28.8125C5.50428 28.7034 5.58013 28.6042 5.67634 28.5207C5.77256 28.4371 5.88721 28.3709 6.01358 28.3259C6.13996 28.2808 6.27553 28.2579 6.41235 28.2584C6.54917 28.2589 6.68451 28.2828 6.81043 28.3288C6.93636 28.3747 7.05035 28.4418 7.14573 28.5261L8.48008 29.6721L10.8433 27.6424C11.0021 27.5005 11.2114 27.4082 11.4382 27.3801C11.4806 27.3731 11.5236 27.3685 11.5668 27.3662ZM17.6437 29.603C17.6758 29.6017 17.708 29.6017 17.7402 29.603H27.0002C27.1366 29.6014 27.2719 29.623 27.3985 29.6667C27.525 29.7103 27.6401 29.7752 27.7372 29.8574C27.8343 29.9396 27.9114 30.0376 27.9641 30.1456C28.0167 30.2537 28.0438 30.3696 28.0438 30.4867C28.0438 30.6038 28.0167 30.7198 27.9641 30.8278C27.9114 30.9358 27.8343 31.0338 27.7372 31.116C27.6401 31.1982 27.525 31.2631 27.3985 31.3067C27.2719 31.3504 27.1366 31.372 27.0002 31.3704H17.7402C17.605 31.3758 17.47 31.3584 17.3427 31.319C17.2154 31.2797 17.0984 31.2191 16.9984 31.1409C16.8983 31.0627 16.8172 30.9683 16.7596 30.8632C16.702 30.7581 16.6692 30.6442 16.6628 30.5281C16.6565 30.4121 16.6768 30.2961 16.7227 30.1868C16.7686 30.0775 16.8391 29.977 16.9301 29.8911C17.0212 29.8052 17.1311 29.7355 17.2536 29.6861C17.376 29.6367 17.5086 29.6085 17.6437 29.603Z" fill="#4DB748"/>
</svg>
