<svg width="36" height="29" viewBox="0 0 36 29" fill="none" xmlns="http://www.w3.org/2000/svg">
<path d="M34.3705 0H1.62947C0.72 0 0 0.716488 0 1.62152V27.3397C0 28.2447 0.72 28.9612 1.62947 28.9612H34.3705C35.28 28.9612 36 28.2447 36 27.3397V1.62152C36 0.716488 35.28 0 34.3705 0ZM32.7411 25.7181H3.25895V3.24305H32.7411V25.7181Z" fill="#4DB748"/>
<path d="M7.69244 22.6256H28.2314C28.7998 22.6256 29.103 22.0222 28.7998 21.5697L23.684 14.4802C23.4567 14.1408 22.964 14.1031 22.6609 14.4048L20.8419 16.1395C20.5388 16.4034 20.084 16.3657 19.8188 16.064L15.423 10.1436C15.1198 9.76648 14.5514 9.80419 14.2861 10.1813L7.08613 21.5697C6.82086 22.0599 7.16191 22.6256 7.69244 22.6256Z" fill="#4DB748"/>
<path d="M24.7081 11.5016C26.0894 11.5016 27.2091 10.3873 27.2091 9.01278C27.2091 7.63822 26.0894 6.52393 24.7081 6.52393C23.3268 6.52393 22.207 7.63822 22.207 9.01278C22.207 10.3873 23.3268 11.5016 24.7081 11.5016Z" fill="#4DB748"/>
</svg>
