<svg width="15" height="22" viewBox="0 0 15 22" fill="none" xmlns="http://www.w3.org/2000/svg">
<circle cx="7.5" cy="11.5" r="7.5" fill="#4DB748"/>
<path d="M6.94402 15.505C6.84402 15.505 6.75402 15.47 6.67402 15.4C6.60402 15.32 6.56902 15.23 6.56902 15.13V12.385H3.89902C3.78902 12.385 3.69402 12.35 3.61402 12.28C3.54402 12.21 3.50902 12.12 3.50902 12.01V10.915C3.50902 10.805 3.54402 10.715 3.61402 10.645C3.69402 10.565 3.78902 10.525 3.89902 10.525H6.56902V7.87C6.56902 7.76 6.60402 7.67 6.67402 7.6C6.75402 7.53 6.84402 7.495 6.94402 7.495H8.17402C8.28402 7.495 8.37402 7.53 8.44402 7.6C8.51402 7.67 8.54902 7.76 8.54902 7.87V10.525H11.204C11.314 10.525 11.404 10.565 11.474 10.645C11.544 10.715 11.579 10.805 11.579 10.915V12.01C11.579 12.12 11.544 12.21 11.474 12.28C11.404 12.35 11.314 12.385 11.204 12.385H8.54902V15.13C8.54902 15.23 8.51402 15.32 8.44402 15.4C8.37402 15.47 8.28402 15.505 8.17402 15.505H6.94402Z" fill="white"/>
</svg>
