<svg width="23" height="14" viewBox="0 0 23 14" fill="none" xmlns="http://www.w3.org/2000/svg">
<path d="M0.284599 7.17012L2.79051 5.02084C3.28452 3.76605 4.34862 2.58482 5.85339 1.64268C7.52079 0.598555 9.51783 0 11.3347 0C13.0607 0 15.056 0.617782 16.81 1.69535C18.292 2.60572 19.4505 3.75016 20.0906 4.91384L22.7119 7.16176C23.0529 7.45435 23.0966 7.94757 22.8168 8.2736C22.6594 8.45751 22.4234 8.56619 22.1785 8.56619C21.9774 8.56619 21.7763 8.49095 21.6277 8.36556L19.7303 6.74377C19.6254 6.65182 19.468 6.66018 19.3631 6.76049C18.8123 7.31224 18.2264 7.82218 17.6406 8.2736C17.5357 8.3572 17.5095 8.49931 17.5882 8.60799L19.1183 10.7982C19.3718 11.1661 19.2669 11.6593 18.891 11.9017C18.7511 11.9853 18.5937 12.0355 18.4275 12.0355C18.1477 12.0355 17.8942 11.9017 17.7368 11.6844L16.2242 9.51084C16.1455 9.40216 15.9968 9.36872 15.8744 9.4356C14.799 10.0208 13.7322 10.397 12.683 10.5642C12.5519 10.5809 12.4557 10.6896 12.4557 10.815V13.1807C12.4557 13.6238 12.0972 13.9916 11.6513 14C11.6425 14 11.6338 14 11.625 14C11.4064 14 11.2053 13.9248 11.048 13.7743C10.8818 13.6238 10.7944 13.4232 10.7944 13.2058V10.8317C10.7944 10.7063 10.6982 10.5976 10.5583 10.5809C9.57029 10.4555 8.54729 10.1295 7.53303 9.61951C7.41062 9.55264 7.25324 9.59443 7.18329 9.71147L5.79306 11.9101C5.64442 12.1441 5.37337 12.2946 5.08483 12.2946C4.90121 12.2946 4.72634 12.2361 4.5777 12.1274C4.24544 11.885 4.15801 11.4252 4.38534 11.0741L5.79306 8.84206C5.86301 8.73339 5.83677 8.59127 5.72311 8.51603C5.01488 8.00609 4.31539 7.40419 3.65088 6.74377C3.5547 6.64346 3.38857 6.64346 3.28365 6.72706L1.37755 8.36556C1.22891 8.49931 1.0278 8.56619 0.8267 8.56619C0.581881 8.56619 0.345802 8.45751 0.188419 8.2736C-0.100121 7.96429 -0.047657 7.46271 0.284599 7.17012ZM11.5114 9.05941C14.5707 9.05941 17.3599 6.51723 18.5141 5.30005C17.2069 3.2862 13.9596 1.50475 11.3347 1.50475C8.52718 1.50475 5.45905 3.21431 4.42119 5.20559C5.51764 6.37511 8.37941 9.05941 11.5114 9.05941Z" fill="#353535"/>
</svg>
