<svg width="40" height="40" viewBox="0 0 40 40" fill="none" xmlns="http://www.w3.org/2000/svg">
<circle cx="20" cy="20" r="20" fill="#D63C31"/>
<path d="M22.7511 25.3616H17.2266L16.3728 9.52455H23.6049L22.7511 25.3616ZM16.4397 31.221C16.4397 30.2054 16.7411 29.4185 17.3437 28.8605C17.9464 28.2913 18.8225 28.0067 19.9721 28.0067C21.1105 28.0067 21.9699 28.2913 22.5502 28.8605C23.1417 29.4185 23.4375 30.2054 23.4375 31.221C23.4375 32.2254 23.1306 33.0123 22.5167 33.5815C21.9141 34.1395 21.0658 34.4185 19.9721 34.4185C18.8672 34.4185 18.0022 34.1395 17.3772 33.5815C16.7522 33.0123 16.4397 32.2254 16.4397 31.221Z" fill="white"/>
</svg>
