<svg width="35" height="35" viewBox="0 0 35 35" fill="none" xmlns="http://www.w3.org/2000/svg">
<path d="M23.2604 1C21.4328 0.333333 19.4391 0 17.4453 0C17.113 0 16.7807 0 16.6146 0C14.9531 0 13.4578 0.333333 11.9625 0.833333C4.98438 3.16667 0 9.83333 0 17.5C0 27.1667 7.80885 35 17.4453 35C27.0818 35 34.8906 27.1667 34.8906 17.5C34.8906 9.83333 30.0724 3.33333 23.2604 1ZM17.4453 29.6667C14.2885 29.6667 14.4547 30.1667 14.4547 26.6667C14.4547 23.1667 14.2885 23.6667 17.4453 23.6667C20.6021 23.6667 20.4359 23.1667 20.4359 26.6667C20.4359 30 20.6021 29.6667 17.4453 29.6667ZM23.2604 18.3333C22.0974 20.5 20.2698 21.5 17.7776 21C16.9469 21 16.2823 21 15.4516 21C14.4547 21 14.2885 20.5 14.4547 19.6667C14.787 18 15.6177 16.6667 17.2792 16C17.7776 15.8333 18.4422 15.5 18.6083 15.1667C18.7745 14.6667 18.6083 13.5 18.4422 13.5C17.6115 13.3333 16.2823 13.1667 16.1161 13.5C15.2854 14.6667 14.2885 14.5 13.2917 14.5H11.6302C9.96875 14.5 9.8026 14.3333 9.96875 12.6667C10.1349 10.5 11.2979 9 13.2917 8C16.1161 6.66667 18.9406 6.83333 21.599 8.16667C23.0943 9 23.925 10.1667 24.2573 11.8333C24.5896 14.1667 24.2573 16.3333 23.2604 18.3333Z" fill="#4DB748"/>
</svg>
