<?xml version="1.0" standalone="no"?>
<!DOCTYPE svg PUBLIC "-//W3C//DTD SVG 20010904//EN"
 "http://www.w3.org/TR/2001/REC-SVG-20010904/DTD/svg10.dtd">
<svg version="1.0" xmlns="http://www.w3.org/2000/svg"
 width="260.000000pt" height="260.000000pt" viewBox="0 0 260.000000 260.000000"
 preserveAspectRatio="xMidYMid meet">
<metadata>
Created by potrace 1.11, written by Peter Selinger 2001-2013
</metadata>
<g transform="translate(0.000000,260.000000) scale(0.100000,-0.100000)"
fill="#000000" stroke="none">
<path d="M1190 2135 l-105 -105 28 -27 27 -27 45 44 c25 24 45 41 45 37 0 -3
-12 -31 -27 -62 -25 -52 -26 -56 -10 -72 15 -15 20 -15 79 10 l63 28 -45 -46
-44 -45 27 -27 27 -28 107 108 108 107 -36 36 -36 36 -72 -36 -72 -37 37 72
36 71 -33 34 c-18 19 -35 34 -39 34 -3 0 -52 -47 -110 -105z"/>
<path d="M1041 1986 c-34 -35 -34 -36 -22 -77 7 -22 15 -47 18 -55 4 -10 -9
-8 -46 8 l-52 21 -29 -28 c-17 -16 -30 -32 -30 -35 0 -3 42 -19 93 -36 73 -23
102 -38 138 -71 l46 -43 28 30 29 30 -42 43 c-38 38 -46 56 -70 146 l-28 101
-33 -34z"/>
<path d="M1450 1875 l-105 -105 77 -77 77 -77 26 24 25 24 -47 48 c-46 47 -46
48 -28 68 l19 21 41 -41 41 -40 24 25 24 25 -39 40 c-31 31 -36 43 -27 52 9 9
23 2 60 -35 l48 -47 24 25 24 26 -74 74 c-41 41 -77 75 -80 75 -3 0 -52 -47
-110 -105z"/>
<path d="M1652 1687 c-56 -56 -102 -107 -102 -113 0 -6 11 -21 25 -34 l25 -24
56 55 c36 34 54 47 51 34 -4 -11 -13 -51 -22 -89 l-15 -69 27 -29 c15 -15 30
-28 34 -28 3 0 14 31 24 68 l18 68 33 -4 c27 -3 39 2 65 27 48 49 38 87 -48
173 l-68 68 -103 -103z m140 -24 c22 -20 24 -61 2 -70 -10 -3 -26 4 -42 20
-25 26 -25 27 -7 47 22 24 24 24 47 3z"/>
<path d="M820 1758 c-122 -62 -120 -217 2 -279 112 -57 245 52 214 176 -10 40
-73 103 -114 115 -50 13 -51 13 -102 -12z m101 -97 c23 -22 39 -48 39 -62 0
-30 -27 -59 -56 -59 -30 0 -80 43 -93 81 -9 27 -7 33 14 55 33 33 51 30 96
-15z"/>
<path d="M846 1300 c-245 -247 -446 -454 -446 -460 0 -7 302 -10 900 -10 694
0 900 3 900 12 0 12 -889 908 -901 908 -3 0 -207 -202 -453 -450z"/>
<path d="M551 1495 l-66 -64 107 -108 107 -107 26 24 c14 13 25 28 25 34 0 6
-21 32 -47 60 -27 27 -40 46 -30 42 10 -3 47 -14 83 -23 l64 -17 32 31 31 31
-70 21 c-68 20 -69 21 -70 57 -1 51 -35 84 -86 84 -35 0 -47 -7 -106 -65z
m117 -38 c2 -10 -4 -27 -14 -38 -17 -19 -18 -19 -41 3 -22 20 -22 22 -6 40 21
23 57 20 61 -5z"/>
<path d="M1867 1462 c-53 -53 -97 -102 -97 -107 0 -6 32 -42 70 -80 l70 -70
27 28 27 27 -44 45 -44 45 79 80 79 79 -24 26 c-13 14 -28 25 -34 25 -6 0 -55
-44 -109 -98z"/>
<path d="M382 1327 l-72 -72 108 -108 107 -107 75 75 74 74 -24 26 -24 25 -46
-45 -46 -46 -19 21 c-18 20 -18 21 18 58 l37 38 -22 22 -22 22 -38 -37 c-32
-31 -39 -34 -53 -23 -14 12 -11 18 30 60 l45 46 -23 22 c-13 12 -25 22 -28 22
-2 0 -37 -33 -77 -73z"/>
<path d="M2047 1282 l-107 -108 30 -29 31 -29 107 107 107 107 -30 30 -30 30
-108 -108z"/>
<path d="M2147 1182 l-107 -108 28 -27 28 -27 59 60 c32 33 60 58 62 56 2 -2
-7 -47 -20 -99 l-24 -95 36 -36 37 -36 102 103 c56 56 102 107 102 113 0 6
-11 21 -25 34 l-25 24 -65 -64 -64 -63 30 98 31 98 -39 38 -38 39 -108 -108z"/>
<path d="M172 1117 c-12 -13 -22 -28 -22 -33 0 -5 46 -55 103 -112 l102 -102
75 75 75 75 -28 27 -27 27 -45 -44 -45 -44 -78 77 c-43 42 -80 77 -83 77 -3 0
-15 -10 -27 -23z"/>
<path d="M2147 716 c-31 -49 -39 -96 -19 -103 7 -3 19 11 28 34 9 21 25 50 35
65 24 33 24 48 2 48 -10 0 -30 -20 -46 -44z"/>
<path d="M1507 736 c-52 -19 -67 -34 -67 -68 0 -26 3 -29 23 -23 12 4 27 12
32 19 6 7 18 15 28 19 15 6 14 0 -8 -36 -40 -64 -57 -106 -50 -128 12 -37 92
-17 157 40 33 29 35 29 31 8 -3 -14 3 -29 16 -41 19 -18 21 -18 56 4 19 12 35
17 35 11 0 -18 38 -13 49 7 10 16 10 16 11 0 0 -26 21 -22 47 10 20 25 21 25
16 5 -7 -31 21 -41 48 -17 15 13 22 15 31 6 9 -9 17 -7 35 10 19 18 23 19 23
5 0 -29 21 -30 51 -1 33 32 38 50 10 34 -28 -15 -33 -13 -21 9 13 25 13 68 0
76 -19 12 -110 -54 -110 -81 0 -6 -7 -17 -15 -24 -19 -16 -19 -1 0 24 33 43 8
62 -31 25 -22 -21 -23 -21 -17 -1 10 38 -18 34 -57 -8 -25 -27 -40 -37 -43
-28 -3 10 -9 8 -19 -6 -14 -18 -15 -17 -11 11 9 56 -45 65 -84 14 -10 -13 -10
-8 -1 21 28 92 -54 143 -165 104z m141 -79 c3 -22 -5 -36 -33 -62 -33 -31 -98
-56 -112 -42 -3 4 5 25 17 49 13 24 28 53 34 66 9 19 18 22 51 20 36 -3 40 -6
43 -31z m372 -42 c-7 -9 -22 -21 -32 -26 -17 -9 -18 -8 -9 10 11 20 42 43 50
35 2 -2 -2 -11 -9 -19z m-308 -40 c-5 -27 -18 -40 -26 -27 -4 8 20 52 28 52 2
0 1 -11 -2 -25z"/>
<path d="M456 635 c-21 -8 -45 -20 -52 -26 -16 -13 -19 -69 -4 -69 18 0 59 23
55 30 -3 4 4 10 15 13 17 4 16 -3 -15 -57 -38 -68 -45 -113 -19 -123 26 -10
93 16 133 53 l39 34 0 -26 c0 -14 7 -33 16 -42 16 -16 19 -16 46 0 16 9 38 14
49 11 12 -3 28 1 37 8 13 10 17 10 25 -2 8 -11 14 -9 35 15 14 16 25 23 24 15
-4 -28 0 -39 15 -39 21 0 68 48 60 61 -4 6 -12 3 -21 -8 -12 -16 -13 -16 -14
-1 0 9 5 20 10 23 14 9 13 45 -2 45 -6 0 -22 -10 -34 -21 -22 -21 -23 -21 -17
-1 9 37 -15 32 -56 -13 -26 -28 -41 -39 -41 -29 0 14 -3 14 -15 4 -13 -11 -15
-9 -15 13 0 13 -7 30 -15 37 -13 11 -21 10 -44 -8 l-28 -21 4 42 c7 61 -18 88
-83 93 -28 2 -66 -3 -88 -11z m142 -79 c6 -48 -73 -113 -127 -104 -21 3 -21 5
11 71 l33 67 40 -2 c36 -3 40 -6 43 -32z m60 -107 c-18 -12 -23 17 -6 38 12
15 13 14 16 -7 2 -12 -2 -27 -10 -31z"/>
<path d="M1263 588 c-17 -18 -34 -43 -38 -55 -3 -13 -11 -23 -16 -23 -13 0
-11 7 6 33 9 14 11 27 5 37 -7 11 -17 6 -49 -27 -23 -22 -41 -37 -41 -32 0 17
-22 9 -27 -10 -3 -11 -11 -22 -19 -25 -12 -4 -11 0 2 25 16 32 12 79 -7 79
-16 0 -72 -31 -96 -53 -28 -25 -29 -48 -3 -72 14 -13 17 -22 10 -29 -5 -5 -10
-25 -10 -44 0 -46 29 -40 52 10 19 40 60 74 77 63 6 -3 19 -1 29 4 13 7 23 6
31 -2 9 -9 16 -9 30 0 16 10 18 9 14 -8 -8 -28 14 -24 46 9 22 22 32 25 45 17
12 -7 22 -3 43 19 26 27 27 28 6 23 -19 -4 -20 -2 -11 13 14 22 -10 80 -32 80
-9 0 -30 -15 -47 -32z m30 -30 c-13 -12 -26 -19 -29 -15 -4 4 1 14 12 22 29
22 41 18 17 -7z m-239 -20 c-7 -18 -54 -51 -54 -39 0 5 12 19 28 30 32 24 33
24 26 9z m191 -38 c3 -5 1 -10 -4 -10 -6 0 -11 5 -11 10 0 6 2 10 4 10 3 0 8
-4 11 -10z"/>
<path d="M2103 584 c-7 -18 11 -39 26 -30 17 11 13 46 -4 46 -9 0 -18 -7 -22
-16z"/>
<path d="M1905 523 c-179 -16 -450 -100 -407 -127 4 -2 48 9 96 25 135 47 273
70 411 70 66 0 129 -2 140 -3 12 -2 20 3 20 12 0 24 -129 35 -260 23z"/>
</g>
</svg>
